<?xml version="1.0" standalone="no"?>
<!DOCTYPE svg PUBLIC "-//W3C//DTD SVG 20010904//EN"
 "http://www.w3.org/TR/2001/REC-SVG-20010904/DTD/svg10.dtd">
<svg version="1.0" xmlns="http://www.w3.org/2000/svg"
 width="1491.000000pt" height="1491.000000pt" viewBox="0 0 1491.000000 1491.000000"
 preserveAspectRatio="xMidYMid meet">
<metadata>
Created by potrace 1.14, written by Peter Selinger 2001-2017
</metadata>
<g transform="translate(0.000000,1491.000000) scale(0.100000,-0.100000)"
fill="#000000" stroke="none">
<path d="M4817 11540 c-32 -10 -66 -25 -76 -34 -10 -9 -25 -16 -34 -16 -36 0
-182 -131 -213 -192 -9 -18 -23 -40 -31 -49 -27 -31 -54 -143 -60 -244 -4 -87
-2 -111 20 -186 14 -47 36 -102 50 -122 13 -20 34 -74 45 -121 12 -48 32 -101
45 -119 35 -47 47 -110 47 -254 0 -124 -1 -131 -28 -174 -25 -39 -92 -159
-192 -344 -19 -36 -52 -93 -73 -127 -40 -67 -45 -76 -69 -123 -90 -173 -122
-232 -132 -245 -7 -8 -23 -37 -37 -65 -13 -27 -26 -52 -30 -55 -3 -3 -20 -34
-38 -70 -19 -36 -39 -71 -45 -79 -11 -13 -26 -41 -110 -205 -21 -42 -43 -76
-47 -76 -5 0 -9 -6 -9 -13 0 -7 -16 -40 -36 -73 -32 -53 -81 -141 -145 -264
-13 -25 -27 -46 -31 -48 -5 -2 -8 -8 -8 -14 0 -5 -24 -51 -53 -101 -28 -51
-63 -114 -77 -141 -14 -26 -30 -50 -35 -52 -6 -3 -40 9 -76 25 -325 147 -771
224 -1119 192 -490 -45 -895 -200 -1285 -494 -111 -84 -347 -323 -433 -437
-251 -337 -407 -714 -469 -1129 -25 -171 -23 -482 5 -667 92 -600 399 -1134
876 -1520 185 -150 495 -319 717 -392 786 -256 1620 -106 2254 405 186 150
376 360 508 563 332 512 453 1152 332 1766 -109 549 -427 1064 -870 1406 -49
39 -91 74 -93 78 -2 4 3 14 10 21 7 8 26 39 42 69 16 30 37 66 46 80 9 14 29
50 44 80 14 30 42 80 61 110 19 30 48 82 65 115 63 122 95 180 103 186 5 4 23
35 41 70 123 241 196 357 196 308 0 -6 8 -8 18 -6 13 4 129 -118 454 -476 241
-265 497 -547 569 -627 73 -80 225 -247 338 -371 699 -767 1066 -1172 1069
-1179 2 -5 -13 -42 -32 -82 -59 -121 -79 -220 -74 -368 4 -106 10 -138 35
-212 86 -249 292 -435 555 -502 66 -17 108 -23 146 -19 45 5 52 3 52 -12 0
-14 6 -16 33 -12 17 3 257 20 532 38 335 22 503 36 510 44 9 10 295 36 700 62
50 3 92 9 95 13 3 3 84 12 180 19 299 21 553 40 606 46 l51 5 43 -122 c296
-850 1050 -1458 1950 -1574 150 -20 463 -19 600 0 333 47 647 158 929 328 310
188 604 482 797 798 361 593 444 1332 223 1995 -278 836 -984 1440 -1864 1596
-152 27 -492 37 -646 20 -234 -27 -511 -101 -694 -185 -43 -20 -79 -35 -80
-34 -16 25 -50 84 -50 88 -1 4 -26 45 -93 150 -9 14 -25 41 -35 60 -11 19 -37
61 -58 92 -21 32 -39 61 -39 66 0 4 -22 42 -50 83 -27 40 -50 77 -50 81 0 4
-29 52 -65 107 -36 55 -65 103 -65 106 0 3 -25 43 -55 90 -30 46 -55 87 -55
90 0 3 -20 36 -44 73 -23 37 -45 72 -47 78 -2 7 -28 49 -57 95 -208 328 -196
292 -132 424 21 44 66 139 99 210 33 72 67 141 74 155 l13 25 164 1 c268 3
435 16 457 37 11 9 24 17 30 17 6 0 23 14 37 31 24 28 26 38 26 129 0 55 4
102 10 105 23 14 8 311 -21 417 -22 82 -113 139 -235 146 -89 5 -132 -5 -189
-43 -19 -14 -88 -40 -153 -60 -64 -19 -124 -38 -132 -42 -8 -3 -17 -7 -20 -8
-3 -1 -12 -4 -20 -8 -29 -11 -210 -67 -219 -67 -6 0 -22 -5 -38 -12 -15 -6
-30 -12 -33 -13 -3 -1 -18 -7 -33 -13 -16 -7 -32 -12 -37 -12 -20 0 -400 -131
-448 -155 -30 -14 -77 -32 -105 -39 -46 -12 -53 -17 -79 -66 -22 -42 -28 -66
-28 -116 0 -35 4 -64 8 -64 5 0 16 -18 26 -40 20 -47 83 -88 155 -103 25 -5
133 -12 239 -14 105 -2 192 -6 192 -9 0 -4 -72 -157 -154 -329 -19 -38 -46
-97 -60 -129 l-26 -59 -1278 6 c-702 4 -1892 10 -2644 14 l-1368 6 6 24 c4 13
37 79 75 146 38 67 81 147 95 177 15 30 33 62 41 72 8 9 16 27 18 40 1 12 8
47 15 75 13 59 8 282 -8 375 -9 52 -42 124 -64 139 -20 14 -80 133 -103 207
-18 56 -14 120 10 158 7 11 18 40 25 63 6 23 19 48 28 56 79 65 95 74 150 80
31 3 86 10 122 16 43 7 304 9 758 7 l692 -3 0 191 0 191 -377 6 c-207 4 -604
7 -882 6 -465 0 -511 -2 -564 -19z m2638 -2420 c1056 -6 2020 -10 2143 -10
122 0 222 -4 222 -8 0 -7 -647 -772 -719 -850 -17 -19 -31 -36 -31 -38 0 -2
-11 -17 -24 -32 -201 -230 -746 -873 -746 -880 0 -5 -16 -22 -35 -36 -19 -15
-35 -33 -35 -41 0 -7 -12 -24 -27 -37 -16 -13 -41 -41 -58 -63 -16 -22 -124
-150 -241 -285 -116 -135 -227 -270 -247 -300 -71 -109 -62 -104 -190 -96 -94
6 -124 4 -189 -13 -42 -11 -95 -29 -119 -40 -23 -11 -46 -18 -50 -15 -8 4
-644 700 -919 1004 -58 64 -375 413 -705 775 -778 854 -885 972 -885 977 0 2
210 3 468 1 257 -2 1331 -8 2387 -13z m2885 -85 c5 -14 28 -53 50 -85 22 -33
43 -68 47 -77 4 -10 30 -54 57 -98 28 -44 56 -89 63 -100 7 -11 52 -84 100
-163 48 -79 95 -156 103 -170 8 -15 39 -64 68 -109 28 -45 52 -85 52 -88 0 -4
23 -41 50 -83 28 -42 50 -82 50 -89 0 -7 5 -13 10 -13 6 0 10 -4 10 -9 0 -6
13 -29 28 -53 16 -24 38 -59 48 -78 10 -19 25 -39 32 -43 24 -15 11 -32 -71
-92 -109 -81 -335 -307 -428 -430 -193 -256 -330 -530 -407 -817 l-27 -100
-335 7 c-184 4 -405 11 -490 15 -85 5 -353 14 -595 20 -242 6 -448 16 -457 21
-10 5 -63 9 -118 9 -55 0 -100 4 -100 8 0 5 72 93 160 195 88 102 160 190 160
195 0 4 14 18 30 30 17 13 30 28 30 35 0 6 11 23 25 37 52 52 805 940 805 948
0 5 16 22 35 36 19 15 35 33 35 41 0 7 14 23 30 35 17 12 30 27 30 35 0 7 14
25 30 38 17 14 30 28 30 32 0 3 149 179 330 390 182 212 330 388 330 391 0 3
14 17 30 31 17 13 30 30 30 37 0 7 14 22 30 34 17 13 30 28 30 34 0 14 50 68
62 68 5 0 13 -11 18 -25z m2355 -1245 c442 -50 843 -232 1153 -524 370 -350
583 -783 632 -1285 70 -723 -276 -1445 -888 -1851 -853 -566 -2000 -388 -2648
410 -125 154 -259 387 -322 561 l-21 56 77 6 c42 3 202 14 355 23 152 10 277
21 277 25 0 4 27 5 60 2 34 -3 71 -1 83 5 18 8 794 62 1087 75 47 3 104 11
127 19 42 15 172 106 173 120 0 5 16 30 36 58 53 74 83 181 84 309 1 59 -3
119 -9 136 -7 17 -19 50 -28 75 -11 30 -42 70 -92 121 -63 62 -89 81 -153 107
-53 22 -93 32 -130 32 l-54 0 -42 64 c-23 35 -42 67 -42 71 0 3 -24 43 -52 88
-29 45 -60 94 -68 109 -8 14 -55 92 -105 173 -49 80 -101 165 -115 189 -40 68
-92 151 -142 231 -27 41 -48 78 -48 82 0 5 -23 42 -50 83 -28 41 -50 81 -50
88 0 6 -5 12 -10 12 -6 0 -16 12 -22 28 -7 15 -28 51 -46 80 -19 30 -32 55
-30 57 13 11 207 80 292 104 91 26 239 53 346 64 78 8 301 6 385 -3z m-10065
-31 c109 -13 210 -34 318 -65 118 -34 272 -96 272 -109 0 -5 -17 -39 -37 -75
-19 -36 -51 -94 -70 -130 -19 -36 -50 -90 -68 -120 -18 -30 -39 -68 -47 -85
-8 -16 -35 -65 -59 -108 -24 -42 -60 -106 -79 -142 -53 -98 -139 -252 -180
-325 -21 -36 -53 -94 -73 -130 -124 -233 -133 -245 -168 -248 -152 -11 -248
-51 -335 -138 -136 -137 -170 -345 -82 -512 128 -244 435 -317 649 -154 157
119 217 314 154 497 l-24 70 101 185 c55 102 136 248 179 325 44 77 89 160
102 185 13 25 41 77 64 115 22 39 62 111 88 160 26 50 54 97 61 105 7 8 24 40
39 70 35 74 103 193 142 249 3 5 80 -57 164 -134 555 -510 774 -1278 574
-2009 -196 -714 -789 -1271 -1513 -1421 -567 -118 -1151 13 -1610 359 -433
328 -715 822 -783 1369 -15 124 -7 451 15 565 163 869 824 1514 1686 1646 114
17 402 20 520 5z m8739 -418 c28 -44 51 -85 51 -91 0 -6 7 -13 15 -16 8 -4 12
-10 9 -15 -3 -5 0 -9 5 -9 6 0 11 -5 11 -11 0 -6 20 -41 44 -78 24 -36 51 -82
61 -101 10 -19 35 -60 56 -91 22 -31 39 -60 39 -65 0 -5 23 -43 50 -83 28 -41
50 -79 50 -84 0 -5 13 -27 29 -50 43 -62 101 -156 129 -207 13 -25 37 -63 53
-84 16 -22 29 -46 29 -53 0 -7 5 -13 10 -13 6 0 10 -4 10 -10 0 -13 -173 -13
-354 1 -77 5 -353 16 -613 22 -259 7 -475 15 -479 19 -10 11 42 169 96 291
124 277 319 534 565 739 44 37 81 67 82 68 0 0 24 -36 52 -79z"/>
</g>
</svg>
